<svg width="400" height="200" xmlns="http://www.w3.org/2000/svg">
  <!-- 2-:>;QA=K9 25;>A8?54 -->
  <circle cx="100" cy="130" r="25" fill="none" stroke="#333" stroke-width="2"/>
  <circle cx="100" cy="130" r="5" fill="#333"/>
  <circle cx="180" cy="130" r="25" fill="none" stroke="#333" stroke-width="2"/>
  <circle cx="180" cy="130" r="5" fill="#333"/>
  <line x1="100" y1="105" x2="140" y2="80" stroke="#333" stroke-width="2"/>
  <line x1="140" y1="80" x2="180" y2="105" stroke="#333" stroke-width="2"/>
  <line x1="140" y1="80" x2="140" y2="130" stroke="#333" stroke-width="2"/>
  <text x="140" y="55" text-anchor="middle" font-size="12">2 :>;5A0</text>

  <!-- 3-:>;QA=K9 25;>A8?54 -->
  <circle cx="260" cy="130" r="22" fill="none" stroke="#333" stroke-width="2"/>
  <circle cx="260" cy="130" r="4" fill="#333"/>
  <circle cx="320" cy="130" r="22" fill="none" stroke="#333" stroke-width="2"/>
  <circle cx="320" cy="130" r="4" fill="#333"/>
  <circle cx="290" cy="155" r="22" fill="none" stroke="#333" stroke-width="2"/>
  <circle cx="290" cy="155" r="4" fill="#333"/>
  <line x1="260" y1="108" x2="290" y2="95" stroke="#333" stroke-width="2"/>
  <line x1="290" y1="95" x2="320" y2="108" stroke="#333" stroke-width="2"/>
  <line x1="290" y1="95" x2="290" y2="133" stroke="#333" stroke-width="2"/>
  <text x="290" y="75" text-anchor="middle" font-size="12">3 :>;5A0</text>
</svg>
